HIERARCHY
ROOT Hips
{
	OFFSET 0.000000 8.830580 0.000000
	CHANNELS 6 Xposition Yposition Zposition Zrotation Yrotation Xrotation 
	JOINT Spine
	{
		OFFSET 0.000000 0.010000 0.000000
		CHANNELS 3 Zrotation Yrotation Xrotation
		JOINT Spine1
		{
			OFFSET 0.000000 2.459130 0.000000
			CHANNELS 3 Zrotation Yrotation Xrotation
			JOINT Neck
			{
				OFFSET 0.000000 2.484630 0.000000
				CHANNELS 3 Zrotation Yrotation Xrotation
				JOINT Head_virtual
				{
					OFFSET 0.000000 0.000000 0.000000
					CHANNELS 3 Zrotation Yrotation Xrotation
					JOINT Head
					{
						OFFSET 0.000000 0.927525 0.000000
						CHANNELS 3 Zrotation Yrotation Xrotation
						End Site
						{
							OFFSET 0.000000 0.000000 0.000000
						}
					}
				}
				JOINT LeftUpArm_virtual
				{
					OFFSET 0.000000 0.000000 0.000000
					CHANNELS 3 Zrotation Yrotation Xrotation
					JOINT LeftUpArm
					{
						OFFSET 1.248820 0.000000 0.000000
						CHANNELS 3 Zrotation Yrotation Xrotation
						JOINT LeftForeArm
						{
							OFFSET 2.597580 0.000000 0.000000
							CHANNELS 3 Zrotation Yrotation Xrotation
							JOINT LeftHand
							{
								OFFSET 2.455420 0.000000 0.000000
								CHANNELS 3 Zrotation Yrotation Xrotation
								End Site
								{
									OFFSET 0.000000 0.000000 0.000000
								}
							}
						}
					}
				}
				JOINT RightUpArm_virtual
				{
					OFFSET -0.000000 -0.000000 -0.000000
					CHANNELS 3 Zrotation Yrotation Xrotation
					JOINT RightUpArm
					{
						OFFSET -1.248820 -0.000000 -0.000000
						CHANNELS 3 Zrotation Yrotation Xrotation
						JOINT RightForeArm
						{
							OFFSET -2.597580 -0.000000 -0.000000
							CHANNELS 3 Zrotation Yrotation Xrotation
							JOINT RightHand
							{
								OFFSET -2.455420 -0.000000 -0.000000
								CHANNELS 3 Zrotation Yrotation Xrotation
								End Site
								{
									OFFSET 0.000000 0.000000 0.000000
								}
							}
						}
					}
				}
			}
		}
	}
	JOINT LeftUpLeg
	{
		OFFSET 1.271939 0.000000 0.000000
		CHANNELS 3 Zrotation Yrotation Xrotation
		JOINT LeftLowLeg
		{
			OFFSET 0.000000 -4.342910 0.000000
			CHANNELS 3 Zrotation Yrotation Xrotation
			JOINT LeftFoot
			{
				OFFSET 0.000000 -4.487670 0.000000
				CHANNELS 3 Zrotation Yrotation Xrotation
				JOINT LeftToeBase
				{
					OFFSET 0.000000 0.000000 1.515070
					CHANNELS 3 Zrotation Yrotation Xrotation
					End Site
					{
						OFFSET 0.000000 0.000000 0.000000
					}
				}
			}
		}
	}
	JOINT RightUpLeg
	{
		OFFSET -1.271939 0.000000 0.000000
		CHANNELS 3 Zrotation Yrotation Xrotation
		JOINT RightLowLeg
		{
			OFFSET 0.000000 -4.342910 0.000000
			CHANNELS 3 Zrotation Yrotation Xrotation
			JOINT RightFoot
			{
				OFFSET 0.000000 -4.487670 0.000000
				CHANNELS 3 Zrotation Yrotation Xrotation
				JOINT RightToeBase
				{
					OFFSET 0.000000 0.000000 1.515070
					CHANNELS 3 Zrotation Yrotation Xrotation
					End Site
					{
						OFFSET 0.000000 0.000000 0.000000
					}
				}
			}
		}
	}
}
MOTION
Frames: 10
Frame Time: 0.041667
-17.590637 9.201637 40.106575 -174.790451 -0.837640 -174.172593 3.346490 -1.929357 -7.122609 -0.273495 -2.165973 7.392481 0.000000 0.000000 0.000000 -1.716675 2.846940 -14.093477 5.098849 6.793484 -59.523186 1.235030 15.255500 -4.521540 -10.540000 -2.516450 -31.089701 0.000000 -22.586700 0.000000 30.263500 10.729200 28.986300 7.629270 -13.728300 -2.820500 6.579080 0.204732 -34.305302 0.000000 19.954500 0.000000 -18.842400 -1.998550 26.878000 8.154590 -1.722644 -6.208207 0.000000 0.000000 8.490940 7.093261 -1.792203 4.994850 0.000000 0.000000 -33.585400 1.179234 4.750927 -3.813161 0.000000 0.000000 6.270850 6.638875 -6.593970 11.030947 0.000000 0.000000 -27.565800 
-17.590356 9.201364 40.101568 -174.786071 -0.870145 -174.191551 3.383647 -1.946819 -7.109165 -0.326424 -2.192244 7.322128 0.000000 0.000000 0.000000 -1.729669 2.862657 -14.012497 5.133719 6.798018 -59.525848 1.253560 15.309800 -4.470480 -10.533200 -2.531960 -31.223600 0.000000 -22.596300 0.000000 30.264700 10.707100 29.077299 7.642670 -13.682400 -2.759900 6.562190 0.211474 -34.382000 0.000000 19.925800 0.000000 -18.887699 -1.985010 27.000500 8.159098 -1.717415 -6.165230 0.000000 0.000000 8.486660 7.098399 -1.816853 4.968204 0.000000 0.000000 -33.576900 1.191514 4.753462 -3.769323 0.000000 0.000000 6.291140 6.647893 -6.619855 10.994425 0.000000 0.000000 -27.554100 
-17.590165 9.201192 40.097780 -174.787059 -0.933409 -174.181262 3.399753 -1.923988 -7.139416 -0.345676 -2.172917 7.315049 0.000000 0.000000 0.000000 -1.682286 2.820175 -14.009810 5.163739 6.758544 -59.487892 1.265950 15.266900 -4.499070 -10.535700 -2.548970 -31.197300 0.000000 -22.600401 0.000000 30.277901 10.731200 29.084000 7.661530 -13.764800 -2.785480 6.530640 0.208590 -34.304600 0.000000 19.918501 0.000000 -18.816500 -2.002660 26.941401 8.163321 -1.750521 -6.171971 0.000000 0.000000 8.489000 7.098539 -1.830819 4.957838 0.000000 0.000000 -33.603100 1.203127 4.667660 -3.746082 0.000000 0.000000 6.289820 6.645926 -6.603516 10.972529 0.000000 0.000000 -27.565300 
-17.590141 9.201222 40.093547 -174.786941 -0.965753 -174.141765 3.363482 -1.948442 -7.244731 -0.253799 -2.186788 7.392784 0.000000 0.000000 0.000000 -1.748198 2.807124 -14.058801 5.196815 6.704087 -59.426284 1.200870 15.298200 -4.550660 -10.516400 -2.534780 -31.088900 0.000000 -22.582899 0.000000 30.285601 10.750600 29.170401 7.611680 -13.725800 -2.854450 6.523100 0.192217 -34.280300 0.000000 19.920300 0.000000 -18.755501 -2.082640 26.882500 8.164979 -1.740606 -6.193779 0.000000 0.000000 8.485190 7.095117 -1.860714 4.944713 0.000000 0.000000 -33.609200 1.208718 4.612014 -3.756240 0.000000 0.000000 6.287940 6.626038 -6.594283 10.968123 0.000000 0.000000 -27.555700 
-17.590020 9.201292 40.090140 -174.784376 -1.002428 -174.095608 3.377432 -1.943593 -7.280891 -0.262249 -2.184861 7.320701 0.000000 0.000000 0.000000 -1.726212 2.785566 -14.006843 5.215828 6.678726 -59.382152 1.180270 15.276300 -4.565790 -10.457200 -2.501780 -30.983900 0.000000 -22.528900 0.000000 30.183201 10.734400 29.026300 7.620740 -13.725400 -2.857390 6.501870 0.174558 -34.258499 0.000000 19.907400 0.000000 -18.680401 -2.028570 26.873301 8.170995 -1.745720 -6.237607 0.000000 0.000000 8.499480 7.099960 -1.877985 4.928754 0.000000 0.000000 -33.602400 1.216502 4.571921 -3.774969 0.000000 0.000000 6.279780 6.610415 -6.601823 10.967809 0.000000 0.000000 -27.583700 
-17.589919 9.201331 40.086232 -174.782848 -1.028222 -174.044448 3.444809 -1.951856 -7.271712 -0.384433 -2.210252 7.132094 0.000000 0.000000 0.000000 -1.679292 2.800300 -13.870370 5.214810 6.711274 -59.376703 1.253620 15.321600 -4.471080 -10.458800 -2.474860 -31.009501 0.000000 -22.528900 0.000000 30.236300 10.710700 29.325100 7.669170 -13.683900 -2.760760 6.487800 0.168697 -34.175900 0.000000 19.948601 0.000000 -18.640600 -2.156680 26.602100 8.176302 -1.751934 -6.269863 0.000000 0.000000 8.496190 7.097112 -1.887717 4.918776 0.000000 0.000000 -33.597401 1.221711 4.524452 -3.796217 0.000000 0.000000 6.275000 6.602999 -6.585775 10.958840 0.000000 0.000000 -27.582400 
-17.589838 9.200997 40.083057 -174.782877 -1.070125 -174.017639 3.457471 -1.919459 -7.329365 -0.411202 -2.180542 7.155278 0.000000 0.000000 0.000000 -1.593595 2.753346 -13.888697 5.211243 6.687500 -59.326325 1.277230 15.271400 -4.531050 -10.484800 -2.478200 -31.047899 0.000000 -22.501499 0.000000 30.267599 10.705500 29.326700 7.666580 -13.758300 -2.808380 6.530900 0.188563 -34.208302 0.000000 19.921400 0.000000 -18.617500 -2.118650 27.021299 8.184428 -1.845127 -6.299990 0.000000 0.000000 8.518810 7.088415 -1.830294 4.902507 0.000000 0.000000 -33.585199 1.226484 4.485022 -3.795389 0.000000 0.000000 6.271890 6.619073 -6.583257 10.932263 0.000000 0.000000 -27.570200 
-17.589470 9.200819 40.079895 -174.786785 -1.111995 -174.015070 3.435908 -1.925323 -7.356406 -0.388821 -2.181191 7.170903 0.000000 0.000000 0.000000 -1.554517 2.729097 -13.886867 5.215809 6.675032 -59.324787 1.270660 15.271300 -4.542810 -10.527600 -2.456540 -31.212099 0.000000 -22.528900 0.000000 30.254101 10.635300 29.250099 7.666730 -13.744900 -2.805100 6.546550 0.153075 -34.245201 0.000000 19.916201 0.000000 -18.484800 -2.060050 26.984301 8.188368 -1.934595 -6.316045 0.000000 0.000000 8.559370 7.086222 -1.783504 4.887974 0.000000 0.000000 -33.569401 1.229577 4.467973 -3.775260 0.000000 0.000000 6.278230 6.634045 -6.601910 10.901565 0.000000 0.000000 -27.550100 
-17.587716 9.200207 40.070126 -174.771995 -1.049952 -174.153219 3.384654 -1.877816 -7.389311 -0.317351 -2.120978 7.357598 0.000000 0.000000 0.000000 -1.536355 2.697369 -13.936293 5.234338 6.639303 -59.290166 1.268520 15.236200 -4.572190 -10.582500 -2.398230 -31.219601 0.000000 -22.568600 0.000000 30.275299 10.622600 29.214899 7.641000 -13.755900 -2.849490 6.591750 0.118055 -34.273300 0.000000 19.928900 0.000000 -18.507700 -2.049900 26.983000 8.199746 -1.873312 -6.065334 0.000000 0.000000 8.493050 7.076095 -1.796892 4.837084 0.000000 0.000000 -33.586700 1.265207 4.571266 -3.568767 0.000000 0.000000 6.248570 6.614908 -6.646623 10.873029 0.000000 0.000000 -27.553700 
-17.587782 9.199938 40.067086 -174.773570 -1.093710 -174.186207 3.367566 -1.884800 -7.386509 -0.288063 -2.123696 7.394697 0.000000 0.000000 0.000000 -1.544639 2.674605 -13.965431 5.287206 6.600924 -59.294359 1.229650 15.216900 -4.572700 -10.563400 -2.348160 -31.079500 0.000000 -22.572001 0.000000 30.294800 10.622500 29.198500 7.655100 -13.758300 -2.862530 6.592350 0.112149 -34.217800 0.000000 19.934200 0.000000 -18.536301 -2.088030 26.679100 8.202487 -1.966117 -6.047323 0.000000 0.000000 8.534610 7.066742 -1.755828 4.810064 0.000000 0.000000 -33.545601 1.269735 4.562755 -3.519438 0.000000 0.000000 6.267060 6.633007 -6.665163 10.841481 0.000000 0.000000 -27.553700 
